HIERARCHY
ROOT Hips
{
	OFFSET 0.000000 0.000000 0.000000
	CHANNELS 6 Xposition Yposition Zposition Zrotation Yrotation Xrotation 
	JOINT LHipJoint
	{
		OFFSET 0.000000 0.000000 0.000000
		CHANNELS 3 Zrotation Yrotation Xrotation
		JOINT LeftUpLeg
		{
			OFFSET 1.363060 -1.794630 0.839290
			CHANNELS 3 Zrotation Yrotation Xrotation
			JOINT LeftLeg
			{
				OFFSET 2.448110 -6.726130 0.000000
				CHANNELS 3 Zrotation Yrotation Xrotation
				JOINT LeftFoot
				{
					OFFSET 2.562200 -7.039590 0.000000
					CHANNELS 3 Zrotation Yrotation Xrotation
					JOINT LeftToeBase
					{
						OFFSET 0.157640 -0.433110 2.322550
						CHANNELS 3 Zrotation Yrotation Xrotation
						End Site
						{
							OFFSET 0.000000 0.000000 0.000000
						}
					}
				}
			}
		}
	}
	JOINT RHipJoint
	{
		OFFSET 0.000000 0.000000 0.000000
		CHANNELS 3 Zrotation Yrotation Xrotation
		JOINT RightUpLeg
		{
			OFFSET -1.305520 -1.794630 0.839290
			CHANNELS 3 Zrotation Yrotation Xrotation
			JOINT RightLeg
			{
				OFFSET -2.542530 -6.985550 0.000000
				CHANNELS 3 Zrotation Yrotation Xrotation
				JOINT RightFoot
				{
					OFFSET -2.568260 -7.056230 0.000000
					CHANNELS 3 Zrotation Yrotation Xrotation
					JOINT RightToeBase
					{
						OFFSET -0.164730 -0.452590 2.363150
						CHANNELS 3 Zrotation Yrotation Xrotation
						End Site
						{
							OFFSET 0.000000 0.000000 0.000000
						}
					}
				}
			}
		}
	}
	JOINT LowerBack
	{
		OFFSET 0.000000 0.000000 0.000000
		CHANNELS 3 Zrotation Yrotation Xrotation
		JOINT Spine
		{
			OFFSET 0.028270 2.035590 -0.193380
			CHANNELS 3 Zrotation Yrotation Xrotation
			JOINT Spine1
			{
				OFFSET 0.056720 2.048850 -0.042750
				CHANNELS 3 Zrotation Yrotation Xrotation
				JOINT Neck
				{
					OFFSET 0.000000 0.000000 0.000000
					CHANNELS 3 Zrotation Yrotation Xrotation
					JOINT Neck1
					{
						OFFSET -0.054170 1.746240 0.172020
						CHANNELS 3 Zrotation Yrotation Xrotation
						JOINT Head
						{
							OFFSET 0.104070 1.761360 -0.123970
							CHANNELS 3 Zrotation Yrotation Xrotation
							End Site
							{
								OFFSET 0.000000 0.000000 0.000000
							}
						}
					}
				}
				JOINT LeftShoulder
				{
					OFFSET 0.000000 0.000000 0.000000
					CHANNELS 3 Zrotation Yrotation Xrotation
					JOINT LeftArm
					{
						OFFSET 3.362410 1.200890 -0.311210
						CHANNELS 3 Zrotation Yrotation Xrotation
						JOINT LeftForeArm
						{
							OFFSET 4.983000 -0.000000 -0.000000
							CHANNELS 3 Zrotation Yrotation Xrotation
							JOINT LeftHand
							{
								OFFSET 3.483560 -0.000000 -0.000000
								CHANNELS 3 Zrotation Yrotation Xrotation
								JOINT LeftFingerBase
								{
									OFFSET 0.000000 0.000000 0.000000
									CHANNELS 3 Zrotation Yrotation Xrotation
									JOINT LeftHandIndex1
									{
										OFFSET 0.715260 -0.000000 -0.000000
										CHANNELS 3 Zrotation Yrotation Xrotation
										End Site
										{
											OFFSET 0.000000 0.000000 0.000000
										}
									}
								}
								JOINT LThumb
								{
									OFFSET 0.000000 0.000000 0.000000
									CHANNELS 3 Zrotation Yrotation Xrotation
									End Site
									{
										OFFSET 0.000000 0.000000 0.000000
									}
								}
							}
						}
					}
				}
				JOINT RightShoulder
				{
					OFFSET 0.000000 0.000000 0.000000
					CHANNELS 3 Zrotation Yrotation Xrotation
					JOINT RightArm
					{
						OFFSET -3.136600 1.374050 -0.404650
						CHANNELS 3 Zrotation Yrotation Xrotation
						JOINT RightForeArm
						{
							OFFSET -5.241900 -0.000000 -0.000000
							CHANNELS 3 Zrotation Yrotation Xrotation
							JOINT RightHand
							{
								OFFSET -3.444170 -0.000000 -0.000000
								CHANNELS 3 Zrotation Yrotation Xrotation
								JOINT RightFingerBase
								{
									OFFSET 0.000000 0.000000 0.000000
									CHANNELS 3 Zrotation Yrotation Xrotation
									JOINT RightHandIndex1
									{
										OFFSET -0.622530 -0.000000 -0.000000
										CHANNELS 3 Zrotation Yrotation Xrotation
										End Site
										{
											OFFSET 0.000000 0.000000 0.000000
										}
									}
								}
								JOINT RThumb
								{
									OFFSET 0.000000 0.000000 0.000000
									CHANNELS 3 Zrotation Yrotation Xrotation
									End Site
									{
										OFFSET 0.000000 0.000000 0.000000
									}
								}
							}
						}
					}
				}
			}
		}
	}
}
MOTION
Frames: 4
Frame Time: 0.008333
9.363390 17.497017 7.920766 0.914695 -8.383198 8.267322 -1.482865 -1.568841 -1.154718 -21.133218 -1.745068 -20.361588 3.255429 13.266136 37.743964 -4.532495 20.108487 -9.526004 0.499500 -4.530800 -12.575000 -2.648407 0.102807 -1.638322 23.698616 16.826260 -14.879915 -4.189583 -13.509109 39.318168 -0.879290 -4.882555 -24.295402 -0.126100 2.289100 -6.305200 -2.379371 -0.422583 -8.048003 1.087992 -1.335366 -4.563417 5.418781 -0.166664 4.844796 -14.104514 -16.287903 -5.181552 6.396493 -21.876724 7.398522 4.958000 -10.981800 4.193800 2.870536 -10.780633 1.967349 -90.538192 1.525691 37.432804 23.156060 -29.102067 -7.015444 -0.485914 -1.469562 -23.290076 10.370501 42.727127 7.922800 -7.125000 0.000000 0.000000 -40.237600 70.540700 -25.854900 -5.256567 10.280517 4.234942 84.232089 -1.628225 39.558268 -26.724428 31.762202 -7.042861 -0.900715 -1.857455 -8.698353 -21.481151 17.705903 -7.121300 7.125000 0.000000 0.000000 5.155700 -9.151800 4.287900 
9.367019 17.507677 7.916683 0.896988 -8.328530 8.277446 -1.478165 -1.562268 -1.146267 -21.033223 -2.251294 -20.090391 3.241477 13.274897 37.849531 -4.305757 19.416375 -10.567318 0.298000 -3.509800 -9.701500 -2.639627 0.091875 -1.628680 23.699972 16.703796 -14.859540 -4.157200 -13.469343 39.175934 -0.821593 -5.006945 -24.045255 -0.116500 2.200400 -6.059800 -2.344430 -0.406777 -8.061570 1.072233 -1.322410 -4.588330 5.381220 -0.153095 4.800004 -14.330756 -16.160980 -5.423468 6.411657 -21.719111 8.029986 4.945000 -10.962000 4.661100 2.839259 -10.830565 1.950509 -90.638885 1.513045 37.642720 23.005375 -29.108453 -7.207311 -0.559913 -1.665830 -23.448277 19.579426 49.212026 16.197500 -7.125000 0.000000 0.000000 -50.233400 78.078900 -40.363600 -5.323832 10.253295 4.183062 84.221211 -1.686140 39.669377 -26.437922 31.476212 -6.883618 -0.892844 -1.857557 -8.464747 -21.222458 17.244296 -6.870600 7.125000 0.000000 0.000000 5.282100 -9.672100 4.338500 
9.368380 17.517203 7.916797 0.905298 -8.215803 8.240587 -1.474517 -1.551487 -1.133619 -20.954401 -2.777815 -19.749082 3.229063 13.284749 37.964301 -4.034582 18.606181 -11.643577 0.136900 -2.384700 -6.570200 -2.632482 0.085324 -1.619739 23.711925 16.802663 -14.660746 -4.119088 -13.421121 39.008609 -0.789926 -5.109028 -23.963473 -0.080300 1.828300 -5.031400 -2.394465 -0.418682 -8.094874 1.059712 -1.333398 -4.612204 5.382187 -0.154736 4.777821 -14.485745 -15.982575 -5.679544 6.464555 -21.518922 8.857196 4.921500 -10.931300 5.219600 2.813248 -10.885178 1.904999 -90.713943 1.492176 37.849336 22.842292 -28.886209 -7.072180 -0.657886 -1.601010 -22.841808 21.230001 46.999504 17.009800 -7.125000 0.000000 0.000000 -39.627100 77.448900 -30.903000 -5.387146 10.231800 4.136149 84.264236 -1.855103 39.622026 -26.142264 31.186837 -6.737852 -0.914168 -1.843301 -8.086237 -20.961860 17.263960 -6.773500 7.125000 0.000000 0.000000 5.456800 -9.703100 4.479900 
9.368380 17.526162 7.917250 0.958171 -8.096639 8.167627 -1.470438 -1.536728 -1.118760 -20.928097 -3.305170 -19.365621 3.214415 13.293089 38.075060 -3.713614 17.665908 -12.775350 0.033000 -1.173100 -3.225200 -2.621019 0.080963 -1.617471 23.698756 16.825272 -14.390416 -4.088838 -13.376486 38.862061 -0.792840 -5.018420 -23.831897 -0.039200 1.277800 -3.513600 -2.530622 -0.415775 -8.125188 1.035640 -1.306088 -4.628196 5.362730 -0.143962 4.792728 -14.486626 -15.753784 -5.987996 6.617955 -21.293308 9.820844 4.902900 -10.882600 5.852000 2.787582 -10.928711 1.862496 -90.701433 1.416197 38.296569 22.621617 -28.621812 -6.943104 -0.692359 -1.583192 -23.155556 22.256786 46.058063 17.586000 -7.125000 0.000000 0.000000 -35.029000 77.204700 -26.991500 -5.450676 10.208576 4.084463 84.346560 -2.014033 39.418294 -25.778059 30.841403 -6.579019 -0.944754 -1.827337 -7.740892 -20.810827 17.455917 -6.770800 7.125000 0.000000 0.000000 5.577900 -9.539800 4.598800 
